<svg width="186" height="40" viewBox="0 0 186 40" fill="none" xmlns="http://www.w3.org/2000/svg">
<path d="M37.3205 30C35.9544 32.3662 34.1179 34.4273 31.9245 36.0564C29.731 37.6854 27.227 38.8477 24.567 39.4716C21.907 40.0955 19.1473 40.1677 16.4583 39.6839C13.7692 39.2001 11.2078 38.1704 8.93213 36.6584L20 20L37.3205 30Z" fill="black"/>
<path d="M2.67969 10C4.04579 7.63383 5.88223 5.57266 8.0757 3.94365C10.2692 2.31464 12.7732 1.15233 15.4332 0.528422C18.0932 -0.0954815 20.8529 -0.167746 23.5419 0.316088C26.2309 0.799922 28.7923 1.82959 31.068 3.34158L20.0002 20L2.67969 10Z" fill="black"/>
<path d="M37.3214 29.9985C28.6558 24.2537 25.7965 12.7326 30.9211 3.5625L31.0681 3.34131C35.3051 6.15638 38.3102 10.4802 39.4718 15.4327C40.6333 20.3848 39.8643 25.5933 37.3214 29.9985Z" fill="black"/>
<path d="M2.87548 10.115C11.4568 15.9568 14.2032 27.5214 8.93076 36.6577C4.69492 33.8429 1.69049 29.5201 0.528784 24.5686C-0.633162 19.6162 0.135689 14.4071 2.67886 10.0015L2.87548 10.115Z" fill="black"/>
<path d="M59.5721 28.2684C57.799 28.2684 56.1795 27.8426 54.7136 26.9912C53.2565 26.1398 52.1066 24.9811 51.264 23.5152C50.4213 22.0494 50 20.4387 50 18.6831C50 16.9188 50.4213 15.3081 51.264 13.851C52.1066 12.3939 53.2565 11.244 54.7136 10.4014C56.1795 9.54992 57.799 9.1242 59.5721 9.1242C61.3364 9.1242 62.9471 9.54992 64.4042 10.4014C65.8701 11.244 67.0244 12.3939 67.867 13.851C68.7185 15.3081 69.1442 16.9188 69.1442 18.6831C69.1442 20.4387 68.7185 22.0494 67.867 23.5152C67.0244 24.9811 65.8701 26.1398 64.4042 26.9912C62.9471 27.8426 61.3364 28.2684 59.5721 28.2684ZM59.5721 24.8451C60.643 24.8451 61.6305 24.573 62.5346 24.0287C63.4474 23.4845 64.1716 22.7428 64.707 21.8036C65.2513 20.8644 65.5234 19.8286 65.5234 18.6963C65.5234 17.5552 65.2513 16.515 64.707 15.5758C64.1716 14.6366 63.4474 13.8993 62.5346 13.3638C61.6217 12.8196 60.6342 12.5475 59.5721 12.5475C58.51 12.5475 57.5225 12.8196 56.6096 13.3638C55.6967 13.8993 54.9682 14.6366 54.424 15.5758C53.8885 16.515 53.6208 17.5552 53.6208 18.6963C53.6208 19.8286 53.8885 20.8644 54.424 21.8036C54.9682 22.7428 55.6967 23.4845 56.6096 24.0287C57.5225 24.573 58.51 24.8451 59.5721 24.8451Z" fill="black"/>
<path d="M80.2574 11.8497C81.7145 11.8497 83.0443 12.2139 84.2469 12.9425C85.4494 13.671 86.3974 14.6629 87.0909 15.9181C87.7843 17.1734 88.131 18.5514 88.131 20.0524C88.131 21.5622 87.7843 22.9447 87.0909 24.1999C86.3974 25.4551 85.4494 26.4514 84.2469 27.1887C83.0531 27.9173 81.7233 28.2815 80.2574 28.2815C79.3007 28.2815 78.4404 28.1016 77.6768 27.7417C76.9131 27.3818 76.2592 26.8815 75.715 26.2407V32.0998C75.715 32.4509 75.5394 32.6265 75.1883 32.6265H72.8578C72.5067 32.6265 72.3312 32.4509 72.3312 32.0998V12.6397C72.3312 12.2886 72.5067 12.113 72.8578 12.113H74.688C75.004 12.113 75.1971 12.2666 75.2673 12.5738L75.478 14.088C76.0397 13.3946 76.7156 12.8503 77.5056 12.4553C78.3044 12.0516 79.2217 11.8497 80.2574 11.8497ZM80.2048 25.0426C81.0825 25.0426 81.8681 24.8319 82.5616 24.4106C83.255 23.9805 83.7904 23.3924 84.1679 22.6462C84.5541 21.9001 84.7472 21.0531 84.7472 20.1051C84.7472 19.1571 84.5497 18.3013 84.1547 17.5376C83.7685 16.774 83.2287 16.1771 82.5352 15.747C81.8418 15.3081 81.0562 15.0886 80.1784 15.0886C79.2919 15.0886 78.4931 15.3081 77.7821 15.747C77.0711 16.1859 76.5137 16.7871 76.11 17.5508C75.715 18.3145 75.5175 19.1659 75.5175 20.1051C75.5175 21.0443 75.7193 21.8914 76.1231 22.6462C76.5269 23.3924 77.0843 23.9805 77.7953 24.4106C78.515 24.8319 79.3182 25.0426 80.2048 25.0426Z" fill="black"/>
<path d="M98.2268 28.3342C96.7259 28.3342 95.3609 27.9655 94.132 27.2282C92.9119 26.4909 91.9508 25.4946 91.2486 24.2394C90.5463 22.9754 90.1952 21.6017 90.1952 20.1183C90.1952 18.6173 90.5244 17.2348 91.1827 15.9708C91.8411 14.7068 92.7496 13.7062 93.9082 12.9688C95.0756 12.2227 96.3747 11.8497 97.8055 11.8497C99.3504 11.8497 100.698 12.2052 101.848 12.9162C103.006 13.6272 103.893 14.6103 104.507 15.8655C105.122 17.1119 105.429 18.5207 105.429 20.0919C105.429 20.2324 105.42 20.4782 105.403 20.8293C105.376 21.1189 105.192 21.2638 104.85 21.2638H93.6449C93.8029 22.0713 94.1101 22.7779 94.5665 23.3836C95.023 23.9892 95.5804 24.4588 96.2387 24.7924C96.9058 25.1172 97.6124 25.2796 98.3585 25.2796C99.6488 25.2796 100.816 24.8802 101.861 24.0814C101.966 23.9848 102.085 23.9366 102.216 23.9366C102.366 23.9366 102.493 24.0156 102.598 24.1736L103.691 25.7272C103.779 25.8589 103.823 25.973 103.823 26.0696C103.823 26.2188 103.752 26.3504 103.612 26.4645C102.866 27.0614 102.041 27.5223 101.137 27.847C100.233 28.1718 99.2626 28.3342 98.2268 28.3342ZM102.071 18.6173C101.852 17.4411 101.374 16.515 100.636 15.8391C99.9078 15.1633 98.9993 14.8253 97.9108 14.8253C97.2174 14.8253 96.5722 14.9833 95.9754 15.2993C95.3873 15.6065 94.8869 16.0454 94.4744 16.616C94.0706 17.1865 93.7897 17.8536 93.6317 18.6173H102.071Z" fill="black"/>
<path d="M116.861 11.8365C118.143 11.8365 119.266 12.1218 120.232 12.6923C121.197 13.2541 121.943 14.0573 122.47 15.1018C122.997 16.1376 123.26 17.3445 123.26 18.7226V27.4257C123.26 27.7768 123.084 27.9524 122.733 27.9524H120.376C120.025 27.9524 119.85 27.7768 119.85 27.4257V19.0913C119.85 18.2662 119.696 17.5464 119.389 16.932C119.082 16.3087 118.647 15.8304 118.085 15.4968C117.524 15.1633 116.87 14.9965 116.124 14.9965C115.369 14.9965 114.667 15.1764 114.017 15.5363C113.376 15.8962 112.867 16.3834 112.49 16.9978C112.112 17.6035 111.924 18.2662 111.924 18.9859V27.4257C111.924 27.7768 111.748 27.9524 111.397 27.9524H109.066C108.715 27.9524 108.54 27.7768 108.54 27.4257V12.6397C108.54 12.2886 108.715 12.113 109.066 12.113H110.897C111.213 12.113 111.406 12.2666 111.476 12.5738L111.779 14.088C112.376 13.4297 113.139 12.8898 114.07 12.4685C115 12.0472 115.931 11.8365 116.861 11.8365Z" fill="black"/>
<path d="M129.518 27.5969C129.368 27.8339 129.158 27.9524 128.886 27.9524H126.015C125.875 27.9524 125.765 27.926 125.686 27.8734C125.607 27.8119 125.568 27.7329 125.568 27.6364C125.568 27.531 125.607 27.4213 125.686 27.3072L130.887 19.8154L126.015 12.7582C125.936 12.6353 125.897 12.5299 125.897 12.4422C125.897 12.3456 125.936 12.2666 126.015 12.2052C126.103 12.1437 126.217 12.113 126.358 12.113H129.254C129.535 12.113 129.746 12.2315 129.886 12.4685L132.954 17.4323L136.009 12.4685C136.149 12.2315 136.355 12.113 136.627 12.113H139.537C139.678 12.113 139.787 12.1437 139.866 12.2052C139.945 12.2666 139.985 12.3456 139.985 12.4422C139.985 12.5475 139.95 12.6528 139.88 12.7582L135.113 19.8154L140.222 27.3204C140.301 27.4345 140.34 27.5398 140.34 27.6364C140.34 27.7329 140.297 27.8119 140.209 27.8734C140.13 27.926 140.02 27.9524 139.88 27.9524H137.009C136.737 27.9524 136.527 27.8339 136.377 27.5969L132.928 22.1723L129.518 27.5969Z" fill="black"/>
<path d="M149.288 28.3342C147.752 28.3342 146.361 27.9655 145.115 27.2282C143.868 26.4909 142.89 25.4946 142.179 24.2394C141.468 22.9754 141.112 21.5973 141.112 20.1051C141.112 18.5953 141.468 17.2129 142.179 15.9576C142.89 14.6937 143.868 13.693 145.115 12.9557C146.361 12.2183 147.757 11.8497 149.302 11.8497C150.346 11.8497 151.32 12.0121 152.225 12.3368C153.137 12.6528 153.954 13.1049 154.674 13.693C154.814 13.8071 154.884 13.9388 154.884 14.088C154.884 14.1933 154.845 14.3074 154.766 14.4303L153.633 16.0235C153.528 16.1815 153.401 16.2605 153.252 16.2605C153.12 16.2605 153.001 16.2122 152.896 16.1156C152.387 15.7294 151.852 15.4354 151.29 15.2335C150.728 15.0316 150.109 14.9306 149.433 14.9306C148.547 14.9306 147.722 15.1589 146.958 15.6153C146.203 16.063 145.602 16.6818 145.154 17.4718C144.706 18.2618 144.483 19.1396 144.483 20.1051C144.483 21.0619 144.706 21.9353 145.154 22.7252C145.611 23.5065 146.216 24.1209 146.971 24.5686C147.735 25.0162 148.56 25.2401 149.446 25.2401C150.122 25.2401 150.741 25.1391 151.303 24.9372C151.873 24.7353 152.409 24.4413 152.909 24.0551C153.023 23.9673 153.137 23.9234 153.252 23.9234C153.401 23.9234 153.532 24.0024 153.647 24.1604L154.766 25.7536C154.854 25.8764 154.897 25.9949 154.897 26.1091C154.897 26.2319 154.845 26.3417 154.739 26.4382C154.02 27.0439 153.195 27.5135 152.264 27.847C151.342 28.1718 150.351 28.3342 149.288 28.3342Z" fill="black"/>
<path d="M164.378 28.3342C162.877 28.3342 161.512 27.9655 160.283 27.2282C159.063 26.4909 158.102 25.4946 157.4 24.2394C156.698 22.9754 156.346 21.6017 156.346 20.1183C156.346 18.6173 156.676 17.2348 157.334 15.9708C157.992 14.7068 158.901 13.7062 160.059 12.9688C161.227 12.2227 162.526 11.8497 163.957 11.8497C165.502 11.8497 166.849 12.2052 167.999 12.9162C169.157 13.6272 170.044 14.6103 170.658 15.8655C171.273 17.1119 171.58 18.5207 171.58 20.0919C171.58 20.2324 171.571 20.4782 171.554 20.8293C171.527 21.1189 171.343 21.2638 171.001 21.2638H159.796C159.954 22.0713 160.261 22.7779 160.718 23.3836C161.174 23.9892 161.732 24.4588 162.39 24.7924C163.057 25.1172 163.764 25.2796 164.51 25.2796C165.8 25.2796 166.967 24.8802 168.012 24.0814C168.117 23.9848 168.236 23.9366 168.367 23.9366C168.517 23.9366 168.644 24.0156 168.749 24.1736L169.842 25.7272C169.93 25.8589 169.974 25.973 169.974 26.0696C169.974 26.2188 169.904 26.3504 169.763 26.4645C169.017 27.0614 168.192 27.5223 167.288 27.847C166.384 28.1718 165.414 28.3342 164.378 28.3342ZM168.223 18.6173C168.003 17.4411 167.525 16.515 166.787 15.8391C166.059 15.1633 165.15 14.8253 164.062 14.8253C163.369 14.8253 162.723 14.9833 162.127 15.2993C161.538 15.6065 161.038 16.0454 160.626 16.616C160.222 17.1865 159.941 17.8536 159.783 18.6173H168.223Z" fill="black"/>
<path d="M178.048 27.4257C178.048 27.7768 177.873 27.9524 177.522 27.9524H175.218C174.866 27.9524 174.691 27.7768 174.691 27.4257V7.89971C174.691 7.5486 174.866 7.37305 175.218 7.37305H177.522C177.873 7.37305 178.048 7.5486 178.048 7.89971V27.4257Z" fill="black"/>
<path d="M185.558 27.4257C185.558 27.7768 185.382 27.9524 185.031 27.9524H182.727C182.376 27.9524 182.2 27.7768 182.2 27.4257V7.89971C182.2 7.5486 182.376 7.37305 182.727 7.37305H185.031C185.382 7.37305 185.558 7.5486 185.558 7.89971V27.4257Z" fill="black"/>
</svg>
